<svg xmlns="http://www.w3.org/2000/svg" fill="none" viewBox="0 0 24 24">
  <path fill="#000" d="M3.5 22c-.5 0-1-.1-1.5-.4C.600002 20.8.100002 18.9.900002 17.5L9.4 3.29999c.3-.4.6-.8 1-1 .7-.4 1.5-.5 2.3-.3.8.2 1.4.7 1.9 1.4L23 17.5c.3.5.4 1 .4 1.5 0 .8-.3 1.6-.9 2.1-.5.6-1.2.9-2 .9h-17Zm7.6-17.60001L2.7 18.5c-.3.5-.1 1.1.4 1.4.1.1.3.1.4.1h16.9c.3 0 .5-.1.7-.3.2-.2.3-.4.3-.7 0-.2 0-.3-.1-.5L12.9 4.39999c-.3-.5-.9-.6-1.4-.4-.2.1-.3.2-.4.4Z"/>
  <path fill="#000" d="M12 14c-.6 0-1-.4-1-1V8.99999c0-.6.4-1 1-1s1 .4 1 1V13c0 .6-.4 1-1 1Zm0 4c-.3 0-.5-.1-.7-.3-.2-.2-.3-.4-.3-.7 0-.1 0-.3.1-.4.1-.1.1-.2.2-.3.1-.1.2-.2.3-.2.2-.1.4-.1.6-.1.1 0 .1 0 .2.1.1 0 .1 0 .2.1 0 0 .1.1.2.1.1.1.2.2.2.3 0 .1.1.3.1.4 0 .3-.1.5-.3.7-.3.2-.5.3-.8.3Z"/>
</svg>
