<svg xmlns="http://www.w3.org/2000/svg" fill="none" viewBox="0 0 24 24">
  <path fill="#000" fill-rule="evenodd" d="M5 5c-.55228 0-1 .44772-1 1v14c0 .5523.44772 1 1 1h14c.5523 0 1-.4477 1-1V6c0-.55228-.4477-1-1-1H5ZM2 6c0-1.65685 1.34315-3 3-3h14c1.6569 0 3 1.34315 3 3v14c0 1.6569-1.3431 3-3 3H5c-1.65685 0-3-1.3431-3-3V6Z" clip-rule="evenodd"/>
  <path fill="#000" fill-rule="evenodd" d="M16 1c.5523 0 1 .44772 1 1v4c0 .55228-.4477 1-1 1s-1-.44772-1-1V2c0-.55228.4477-1 1-1ZM8 1c.55228 0 1 .44772 1 1v4c0 .55228-.44772 1-1 1s-1-.44772-1-1V2c0-.55228.44772-1 1-1Zm-6 9c0-.55229.44772-1 1-1h18c.5523 0 1 .44771 1 1 0 .5523-.4477 1-1 1H3c-.55228 0-1-.4477-1-1Z" clip-rule="evenodd"/>
</svg>
