<svg xmlns="http://www.w3.org/2000/svg" fill="none" viewBox="0 0 24 26">
  <path fill="#000" fill-rule="evenodd" d="M3.87868 3.87868C4.44129 3.31607 5.20435 3 6 3h7c.2652 0 .5196.10536.7071.29289l7 7.00001c.1875.1875.2929.4419.2929.7071v11c0 .7957-.3161 1.5587-.8787 2.1213C19.5587 24.6839 18.7957 25 18 25H6c-.79565 0-1.55871-.3161-2.12132-.8787C3.31607 23.5587 3 22.7957 3 22V6c0-.79565.31607-1.55871.87868-2.12132ZM6 5c-.26522 0-.51957.10536-.70711.29289C5.10536 5.48043 5 5.73478 5 6v16c0 .2652.10536.5196.29289.7071C5.48043 22.8946 5.73478 23 6 23h12c.2652 0 .5196-.1054.7071-.2929S19 22.2652 19 22V11.4142L12.5858 5H6Z" clip-rule="evenodd"/>
  <path fill="#000" fill-rule="evenodd" d="M13 3c.5523 0 1 .44772 1 1v6h6c.5523 0 1 .4477 1 1s-.4477 1-1 1h-7c-.5523 0-1-.4477-1-1V4c0-.55228.4477-1 1-1Z" clip-rule="evenodd"/>
  <path fill="#000" d="M6.87868.87868C7.44129.31607 8.20435 0 9 0h7c.2652 0 .5196.105357.7071.292893l7 6.999997C23.8946 7.48043 24 7.73478 24 8v11s0 .5-.5 1-1.5 1-1.5 1V8.41421L15.5858 2H6.17157c.14776-.4179.3877-.80192.70711-1.12132Z"/>
</svg>
