<svg xmlns="http://www.w3.org/2000/svg" fill="none" viewBox="0 0 24 24">
  <path fill="#000" d="M21 6.99999H8c-.6 0-1-.4-1-1s.4-1 1-1h13c.6 0 1 .4 1 1s-.4 1-1 1ZM21 13H8c-.6 0-1-.4-1-1s.4-1 1-1h13c.6 0 1 .4 1 1s-.4 1-1 1Zm0 6H8c-.6 0-1-.4-1-1s.4-1 1-1h13c.6 0 1 .4 1 1s-.4 1-1 1ZM3 6.99999h-.2c-.1 0-.1 0-.2-.1-.1 0-.1-.1-.2-.1s-.1-.1-.1-.1c-.1-.1-.2-.2-.2-.3-.1-.1-.1-.3-.1-.4 0-.1 0-.3.1-.4.1-.1.1-.2.2-.3.3-.3.7-.4 1.1-.2.1.1.2.1.3.2.2.2.3.4.3.7 0 .3-.1.5-.3.7-.2.2-.4.3-.7.3ZM3 13c-.3 0-.5-.1-.7-.3-.2-.2-.3-.4-.3-.7v-.2c0-.1 0-.1.1-.2 0-.1.1-.1.1-.2s.1-.1.1-.1c.1-.1.2-.2.3-.2.4-.2.8-.1 1.1.2l.1.1c0 .1.1.1.1.2s0 .1.1.2v.2c0 .3-.1.5-.3.7-.2.2-.4.3-.7.3Zm0 6c-.3 0-.5-.1-.7-.3-.2-.2-.3-.4-.3-.7 0-.1 0-.3.1-.4.1-.1.1-.2.2-.3.4-.4 1-.4 1.4 0 .2.2.3.4.3.7 0 .3-.1.5-.3.7-.2.2-.4.3-.7.3Z"/>
</svg>
