<svg xmlns="http://www.w3.org/2000/svg" fill="none" viewBox="0 0 24 24">
  <path fill="#000" d="M21.3408 1.5H2.65922c-.30741.00012-.60219.1223-.81956.33966-.21736.21737-.33954.51215-.33966.81956V21.3408c.00012.3074.1223.6022.33966.8195.21737.2174.51215.3396.81956.3397H12v-8.25H9.48984v-3H12V8.85938c0-2.71219 1.8811-4.18876 4.3041-4.18876 1.1592 0 2.4061.08719 2.6957.12563v2.83266h-1.9303c-1.3181 0-1.5693.62343-1.5693 1.54218V11.25h3.1406l-.4102 3h-2.7304v8.25h5.8406c.3074-.0001.6022-.1223.8195-.3397.2174-.2173.3396-.5121.3397-.8195V2.65922c-.0001-.30741-.1223-.60219-.3397-.81956-.2173-.21736-.5121-.33954-.8195-.33966Z"/>
</svg>
