<svg xmlns="http://www.w3.org/2000/svg" fill="none" viewBox="0 0 24 24">
  <path fill="#000" d="m22.1794 10.3819-.106-.44956h-9.7706v4.13536h5.8378c-.6061 2.8781-3.4186 4.3931-5.7159 4.3931-1.6716 0-3.43361-.7031-4.59986-1.8333-.61531-.6058-1.1051-1.327-1.44131-2.1224-.33622-.7953-.51227-1.6491-.51806-2.5126 0-1.7419.78281-3.48422 1.92187-4.63031 1.13907-1.1461 2.85936-1.78735 4.56986-1.78735 1.9589 0 3.3628 1.04016 3.8878 1.51454l2.9386-2.92313C18.3216 3.40875 15.9534 1.5 12.2625 1.5c-2.84766 0-5.57813 1.09078-7.57406 3.08016C2.71875 6.53906 1.69922 9.37172 1.69922 12c0 2.6283.96469 5.3194 2.87344 7.2938C6.61219 21.3994 9.50063 22.5 12.4748 22.5c2.7061 0 5.2711-1.0603 7.0993-2.9841 1.7972-1.8937 2.7267-4.514 2.7267-7.2609 0-1.1564-.1163-1.8431-.1214-1.8731Z"/>
</svg>
