<svg xmlns="http://www.w3.org/2000/svg" fill="none" viewBox="0 0 24 24">
  <path fill="#000" fill-rule="evenodd" d="M4 5c-.54772 0-1 .45228-1 1v12c0 .5477.45228 1 1 1h16c.5477 0 1-.4523 1-1V6c0-.54772-.4523-1-1-1H4ZM1 6c0-1.65228 1.34772-3 3-3h16c1.6523 0 3 1.34772 3 3v12c0 1.6523-1.3477 3-3 3H4c-1.65228 0-3-1.3477-3-3V6Z" clip-rule="evenodd"/>
  <path fill="#000" fill-rule="evenodd" d="M1.18076 5.42653c.31672-.45245.94025-.56248 1.3927-.24577L12 11.7793l9.4265-6.59854c.4525-.31671 1.076-.20668 1.3927.24577s.2067 1.07598-.2457 1.3927l-10 6.99997c-.3444.2411-.8026.2411-1.147 0L1.42653 6.81923c-.452447-.31672-.562482-.94025-.24577-1.3927Z" clip-rule="evenodd"/>
</svg>
