<svg xmlns="http://www.w3.org/2000/svg" fill="none" viewBox="0 0 24 24">
  <path fill="#000" fill-rule="evenodd" d="M12 3c-1.5913 0-3.11742.63214-4.24264 1.75736C6.63214 5.88258 6 7.4087 6 9v5c0 .7082-.18782 1.3971-.53589 2H18.5359C18.1878 15.3971 18 14.7082 18 14V9c0-1.5913-.6321-3.11742-1.7574-4.24264C15.1174 3.63214 13.5913 3 12 3Zm10 13c-.5304 0-1.0391-.2107-1.4142-.5858S20 14.5304 20 14V9c0-2.12173-.8429-4.15656-2.3431-5.65685C16.1566 1.84285 14.1217 1 12 1c-2.12173 0-4.15656.84285-5.65685 2.34315C4.84285 4.84344 4 6.87827 4 9v5c0 .5304-.21071 1.0391-.58579 1.4142C3.03914 15.7893 2.53043 16 2 16c-.55228 0-1 .4477-1 1s.44772 1 1 1h20v-2ZM9.76823 20.135c.47777-.2771 1.08967-.1145 1.36677.3632.0879.1516.2141.2774.3659.3648.1518.0874.3239.1335.4991.1335.1752 0 .3473-.0461.4991-.1335s.278-.2132.3659-.3648c.2771-.4777.889-.6403 1.3668-.3632.4777.2771.6403.889.3632 1.3668-.2637.4546-.6422.8319-1.0977 1.0943-.4554.2623-.9717.4004-1.4973.4004-.5256 0-1.0419-.1381-1.4973-.4004-.4555-.2624-.83398-.6397-1.0977-1.0943-.27712-.4778-.1145-1.0897.36323-1.3668Z" clip-rule="evenodd"/>
</svg>
