<svg xmlns="http://www.w3.org/2000/svg" fill="none" viewBox="0 0 24 24">
  <path fill="#000" fill-rule="evenodd" d="M15.78 2.38778c-.7962 0-1.5599.3163-2.1229.87933L4.46711 12.4571c-.93831.9383-1.46545 2.2109-1.46545 3.5379s.52714 2.5996 1.46545 3.5379c.9383.9383 2.21092 1.4654 3.53789 1.4654 1.32697 0 2.5996-.5271 3.5379-1.4654l9.19-9.19c.3905-.39053 1.0237-.39053 1.4142 0 .3905.3905.3905 1.0237 0 1.4142l-9.19 9.19c-1.3134 1.3134-3.0947 2.0512-4.9521 2.0512-1.8574 0-3.63873-.7378-4.95211-2.0512-1.31338-1.3134-2.05123-3.0947-2.05123-4.9521 0-1.8574.73785-3.6387 2.05123-4.9521l9.19001-9.19001C13.181.914794 14.4533.387775 15.78.387775c1.3267 0 2.599.527019 3.5371 1.465115.9381.9381 1.4651 2.21044 1.4651 3.53711s-.527 2.59901-1.4651 3.53711l-9.2 9.18999c-.56281.5628-1.32615.879-2.1221.879-.79595 0-1.55929-.3162-2.12211-.879-.56281-.5628-.879-1.3262-.879-2.1221s.31619-1.5593.879-2.1221l8.49041-8.48042c.3908-.3903 1.0239-.38993 1.4142.00083.3903.39075.3899 1.02392-.0008 1.41421L7.28711 15.2871c-.18749.1877-.29322.4426-.29322.7079 0 .2655.10547.5201.29322.7079.18774.1877.44238.2932.70789.2932s.52015-.1055.70789-.2932l9.20001-9.19001c.5628-.56299.8793-1.32683.8793-2.12289 0-.79624-.3163-1.55987-.8793-2.12289-.563-.56303-1.3267-.87933-2.1229-.87933Z" clip-rule="evenodd"/>
</svg>
