<svg xmlns="http://www.w3.org/2000/svg" fill="none" viewBox="0 0 24 24">
  <path fill="#1A1F71" d="m4.12317 8.91939.66294 3.45161C3.88283 9.38627 0 8.17046 0 8.17046h3.04565c.77843 0 1.07752.74893 1.07752.74893Zm11.69253.64351c-.9793 0-1.3205.32859-1.3205.7695 0 .3453.4378.5749.9628.8502.7865.4124 1.7687.9275 1.7691 2.088 0 1.6101-1.9575 2.7294-3.3681 2.7294-1.4107 0-2.1397-.4422-2.1397-.4422l.3405-1.6122s.751.4443 1.89.4443c1.1362 0 1.2958-.4902 1.2958-.6997 0-.516-.4761-.7594-1.0307-1.0428-.7733-.3952-1.6992-.8684-1.6992-2.2678C12.5157 9.05015 13.5846 8 15.6555 8c.9113 0 1.844.3731 1.844.3731l-.3185 1.6813s-.729-.4915-1.3653-.4915Z"/>
  <path fill="#1A1F71" fill-rule="evenodd" d="M20.4042 8.15403h2.071L24 15.7611h-1.7905l-.2123-1.0858H19.533l-.4052 1.0858H17.173l3.2312-7.60707Zm.7464 2.19267-1.0715 2.8746h1.633l-.5615-2.8746Z" clip-rule="evenodd"/>
  <path fill="#1A1F71" d="m5.02312 13.5712 1.80189-5.41709 2.10632-.00068-2.99558 7.60707H3.76534L2.1851 9.60063s1.66503.86467 2.69115 3.22227c.04339.2869.14687.7483.14687.7483Zm5.48778 2.19H8.54278l1.16765-7.60709h1.99217l-1.1917 7.60709Z"/>
</svg>
