<svg xmlns="http://www.w3.org/2000/svg" fill="none" viewBox="0 0 24 24">
  <path fill="#000" fill-rule="evenodd" d="M18.7071 5.29289c.3905.39053.3905 1.02369 0 1.41422L6.70711 18.7071c-.39053.3905-1.02369.3905-1.41422 0-.39052-.3905-.39052-1.0237 0-1.4142L17.2929 5.29289c.3905-.39052 1.0237-.39052 1.4142 0Z" clip-rule="evenodd"/>
  <path fill="#000" fill-rule="evenodd" d="M5.29289 5.29289c.39053-.39052 1.02369-.39052 1.41422 0L18.7071 17.2929c.3905.3905.3905 1.0237 0 1.4142-.3905.3905-1.0237.3905-1.4142 0L5.29289 6.70711c-.39052-.39053-.39052-1.02369 0-1.41422Z" clip-rule="evenodd"/>
</svg>
