<svg width="375" height="292" viewBox="0 0 375 292" fill="none" xmlns="http://www.w3.org/2000/svg">
<g clip-path="url(#clip0_237_7769)">
<g opacity="0.5">
<rect width="191.088" height="13.0118" transform="matrix(-0.957615 -0.28805 -0.3901 0.920772 384 39.043)" fill="#FFF7EC"/>
<rect width="298.41" height="13.2537" transform="matrix(-0.918678 0.395006 0.519867 0.854247 313.201 17.449)" fill="#FFF7EC"/>
<rect width="245.033" height="13.7628" transform="matrix(-0.817774 -0.57554 -0.70573 0.708481 343.73 129.066)" fill="#FFF7EC"/>
<rect width="163.186" height="13.5134" transform="matrix(-0.870815 -0.491612 -0.624235 0.781237 138.47 97.0046)" fill="#FFF7EC"/>
<rect width="83.4571" height="15.1296" transform="matrix(0 -1 -1 0 175.413 170.851)" fill="#FFF7EC"/>
<rect width="201.413" height="12.7173" transform="matrix(-1 0 0 1 175.413 159.723)" fill="#FFF7EC"/>
<rect width="169.299" height="15.1296" transform="matrix(0 -1 -1 0 49.6482 220.131)" fill="#FFF7EC"/>
<rect x="-0.498514" y="1.56157" width="280.591" height="2.5" transform="matrix(-0.918678 0.395006 0.519867 0.854247 297.904 27.5551)" stroke="#F2B256" stroke-width="2.5" stroke-linecap="square" stroke-linejoin="bevel" stroke-dasharray="20 20"/>
<rect x="-1.23766" y="-1.0748" width="76.3915" height="2.5" transform="matrix(0 -1 -0.990129 0.140158 41.6488 214.86)" stroke="#F2B256" stroke-width="2.5" stroke-linecap="square" stroke-linejoin="bevel" stroke-dasharray="20 20"/>
<circle cx="308" cy="24" r="12" fill="#F2B256"/>
<path d="M40.5729 211.425C40.9098 210.591 42.0902 210.591 42.4272 211.425L49.8355 229.756C50.1458 230.523 49.4418 231.314 48.6432 231.094L41.7651 229.203C41.5916 229.156 41.4084 229.156 41.2349 229.203L34.3568 231.094C33.5583 231.314 32.8542 230.523 33.1645 229.756L40.5729 211.425Z" fill="#071440"/>
</g>
<ellipse cx="314.5" cy="290.631" rx="102.5" ry="2.5" fill="#ED8B00"/>
<circle cx="249.764" cy="270.934" r="20.1965" fill="black"/>
<rect x="211.795" y="106.131" width="172.074" height="160.764" fill="#FDE6C1"/>
<rect x="125.354" y="106.131" width="86.441" height="173.69" fill="black"/>
<path d="M125.354 106.131H211.795V176.414H166.151L125.354 106.131Z" fill="#2F1B00"/>
<rect x="211.795" y="262.048" width="172.074" height="4.84716" fill="black"/>
<rect x="211.795" y="106.131" width="36.3537" height="160.764" fill="#F2B256"/>
<rect x="89" y="106.131" width="36.3537" height="160.764" fill="#F2B256"/>
<rect x="129.393" y="266.895" width="12.1179" height="8.0786" fill="#FDE6C1"/>
<rect x="194.022" y="266.895" width="12.1179" height="8.0786" fill="#FDE6C1"/>
<rect x="152.013" y="227.31" width="29.8908" height="34.738" fill="#FDE6C1"/>
<rect x="181.904" y="227.31" width="29.8908" height="34.738" fill="#ED8B00"/>
<rect x="165.747" y="196.611" width="22.6201" height="29.8908" fill="#FDE6C1"/>
<rect x="188.367" y="196.611" width="23.4279" height="29.8908" fill="#ED8B00"/>
<rect x="165.747" y="165.912" width="22.6201" height="29.8908" fill="#FDE6C1"/>
<rect x="188.367" y="165.912" width="23.4279" height="29.8908" fill="#ED8B00"/>
<path d="M268.345 262.048C268.345 254.017 274.855 247.506 282.886 247.506H345.092C353.123 247.506 359.633 254.017 359.633 262.048H268.345Z" fill="black"/>
<circle cx="292.581" cy="270.934" r="20.1965" fill="black"/>
<ellipse cx="298.236" cy="270.934" rx="9.69432" ry="13.7336" fill="white"/>
<circle cx="337.013" cy="270.934" r="20.1965" fill="black"/>
<ellipse cx="342.668" cy="270.934" rx="9.69432" ry="13.7336" fill="white"/>
</g>
<defs>
<clipPath id="clip0_237_7769">
<rect width="410" height="307.131" fill="white" transform="translate(-26 -16)"/>
</clipPath>
</defs>
</svg>
