<svg width="64" height="79" viewBox="0 0 64 79" fill="none" xmlns="http://www.w3.org/2000/svg">
<path d="M0 32C0 14.3269 14.3269 0 32 0C49.6731 0 64 14.3269 64 32C64 49.6731 49.6731 64 32 64C14.3269 64 0 49.6731 0 32Z" fill="#FFF7EC"/>
<path d="M29.691 33.682V32.22H32.462C33.0513 32.22 33.5387 32.1067 33.924 31.88C34.3093 31.642 34.5983 31.3247 34.791 30.928C34.995 30.5313 35.097 30.0893 35.097 29.602C35.097 29.1033 34.995 28.6557 34.791 28.259C34.5983 27.8623 34.3093 27.5507 33.924 27.324C33.5387 27.0973 33.0513 26.984 32.462 26.984H29.691V25.522H32.156C33.176 25.522 34.026 25.6863 34.706 26.015C35.3973 26.3323 35.9187 26.7857 36.27 27.375C36.6213 27.9643 36.797 28.6613 36.797 29.466V29.738C36.797 30.5313 36.6213 31.2283 36.27 31.829C35.9187 32.4183 35.3973 32.8773 34.706 33.206C34.026 33.5233 33.176 33.682 32.156 33.682H29.691ZM28.365 38V25.522H30.031V38H28.365Z" fill="#3F496B"/>
<path d="M32 63C14.8792 63 1 49.1208 1 32H-1C-1 50.2254 13.7746 65 32 65V63ZM63 32C63 49.1208 49.1208 63 32 63V65C50.2254 65 65 50.2254 65 32H63ZM32 1C49.1208 1 63 14.8792 63 32H65C65 13.7746 50.2254 -1 32 -1V1ZM32 -1C13.7746 -1 -1 13.7746 -1 32H1C1 14.8792 14.8792 1 32 1V-1Z" fill="#AEB3C1"/>
<path d="M34 59C34 53.4772 38.4772 49 44 49H54C59.5228 49 64 53.4772 64 59V69C64 74.5228 59.5228 79 54 79H44C38.4772 79 34 74.5228 34 69V59Z" fill="#FFF7EC"/>
<path fill-rule="evenodd" clip-rule="evenodd" d="M46.126 56.834C46.2651 56.6253 46.4992 56.5 46.75 56.5H51.25C51.5008 56.5 51.7349 56.6253 51.874 56.834L53.1514 58.75H55.75C56.3467 58.75 56.919 58.9871 57.341 59.409C57.7629 59.831 58 60.4033 58 61V69.25C58 69.8467 57.7629 70.419 57.341 70.841C56.919 71.2629 56.3467 71.5 55.75 71.5H42.25C41.6533 71.5 41.081 71.2629 40.659 70.841C40.2371 70.419 40 69.8467 40 69.25V61C40 60.4033 40.2371 59.831 40.659 59.409C41.081 58.9871 41.6533 58.75 42.25 58.75H44.8486L46.126 56.834ZM47.1514 58L45.874 59.916C45.7349 60.1247 45.5008 60.25 45.25 60.25H42.25C42.0511 60.25 41.8603 60.329 41.7197 60.4697C41.579 60.6103 41.5 60.8011 41.5 61V69.25C41.5 69.4489 41.579 69.6397 41.7197 69.7803C41.8603 69.921 42.0511 70 42.25 70H55.75C55.9489 70 56.1397 69.921 56.2803 69.7803C56.421 69.6397 56.5 69.4489 56.5 69.25V61C56.5 60.8011 56.421 60.6103 56.2803 60.4697C56.1397 60.329 55.9489 60.25 55.75 60.25H52.75C52.4992 60.25 52.2651 60.1247 52.126 59.916L50.8486 58H47.1514Z" fill="#F2B256"/>
<path fill-rule="evenodd" clip-rule="evenodd" d="M49 62.5C47.7574 62.5 46.75 63.5074 46.75 64.75C46.75 65.9926 47.7574 67 49 67C50.2426 67 51.25 65.9926 51.25 64.75C51.25 63.5074 50.2426 62.5 49 62.5ZM45.25 64.75C45.25 62.6789 46.9289 61 49 61C51.0711 61 52.75 62.6789 52.75 64.75C52.75 66.8211 51.0711 68.5 49 68.5C46.9289 68.5 45.25 66.8211 45.25 64.75Z" fill="#F2B256"/>
</svg>
