<svg width="304" height="187" viewBox="0 0 304 187" fill="none" xmlns="http://www.w3.org/2000/svg">
<ellipse cx="165.5" cy="184.5" rx="162.5" ry="2.5" fill="#F2B256"/>
<circle cx="173.141" cy="165.235" r="19.765" fill="black"/>
<rect x="135.983" y="156.539" width="168.397" height="4.74359" fill="black"/>
<rect x="158.91" width="59.2949" height="156.538" fill="#F2B256"/>
<path d="M191.325 156.538C191.325 148.679 197.696 142.308 205.556 142.308H266.432C274.291 142.308 280.662 148.679 280.662 156.538H191.325Z" fill="black"/>
<circle cx="215.043" cy="165.235" r="19.765" fill="black"/>
<ellipse cx="220.577" cy="165.235" rx="9.48718" ry="13.4402" fill="white"/>
<circle cx="29.2521" cy="165.235" r="19.765" fill="black"/>
<rect y="156.539" width="192.906" height="4.74359" fill="black"/>
<circle cx="258.526" cy="165.235" r="19.765" fill="black"/>
<ellipse cx="264.06" cy="165.235" rx="9.48718" ry="13.4402" fill="white"/>
<path d="M45.8547 94.5824C60.0855 44.2734 76.688 32.4144 127.682 28.5675L181.442 28.4614V156.538H0V135.283C0 129.915 2.05767 124.678 5.69852 120.734C6.90488 119.427 8.24948 118.056 10 116.5C10.5 114 11 112.5 12 110C22.6635 102.98 41.4231 96.5767 45.8547 94.5824Z" fill="#F2B256"/>
<path d="M9.88245 131.773V114.103C9.88245 111.341 12.121 109.103 14.8824 109.103H39.6728C42.2733 109.103 44.4431 111.095 44.5811 113.691C44.8539 118.823 44.9786 125.417 44.2735 128.472C43.4209 132.167 38.8861 135.074 36.0632 136.39C35.4867 136.659 34.8548 136.773 34.2187 136.773H14.8824C12.121 136.773 9.88245 134.535 9.88245 131.773Z" fill="black"/>
<path d="M108.312 66.4102L55.7372 66.4102C53.7607 68.782 45.8547 94.4764 45.8547 94.4764L99.8288 94.4764L108.312 66.4102Z" fill="black"/>
<path d="M181.442 28.4614V156.538H72.7351V121.627C72.7351 116.686 74.5039 111.847 78.2309 108.603C85.0462 102.671 93.5097 97.3302 99.6154 94.5825C111.87 42.7984 127.682 26.8803 181.442 28.4614Z" fill="#FFF7EC"/>
<path d="M83.8035 156.538C83.8035 148.679 90.1748 142.308 98.0342 142.308H109.103C116.962 142.308 123.333 148.679 123.333 156.538H83.8035Z" fill="black"/>
<circle cx="103.568" cy="165.235" r="19.765" fill="black"/>
<ellipse cx="109.103" cy="165.235" rx="9.48718" ry="13.4402" fill="white"/>
<path d="M0 139.936H4.48718C7.2486 139.936 9.48718 142.174 9.48718 144.936V149.423H0V139.936Z" fill="#FFF7EC"/>
<path d="M64.8291 139.936H54.0171C51.2557 139.936 49.0171 142.174 49.0171 144.936V149.423H64.8291V139.936Z" fill="#FFF7EC"/>
</svg>
