<svg width="24" height="24" viewBox="0 0 24 24" fill="none" xmlns="http://www.w3.org/2000/svg">
<g clip-path="url(#clip0_21_771)">
<rect x="2.5" y="2" width="20" height="20" rx="3" fill="#49CA94"/>
<path fill-rule="evenodd" clip-rule="evenodd" d="M25.129 1.39052C25.6237 1.91122 25.6237 2.75544 25.129 3.27614L12.4623 16.6095C11.9677 17.1302 11.1657 17.1302 10.671 16.6095L6.871 12.6095C6.37633 12.0888 6.37633 11.2446 6.871 10.7239C7.36566 10.2032 8.16767 10.2032 8.66234 10.7239L11.5667 13.781L23.3377 1.39052C23.8323 0.869825 24.6343 0.869825 25.129 1.39052Z" fill="white"/>
<path fill-rule="evenodd" clip-rule="evenodd" d="M5.49998 4C5.23477 4 4.98041 4.10536 4.79288 4.29289C4.60534 4.48043 4.49998 4.73478 4.49998 5V19C4.49998 19.2652 4.60534 19.5196 4.79288 19.7071C4.98041 19.8946 5.23477 20 5.49998 20H19.5C19.7652 20 20.0196 19.8946 20.2071 19.7071C20.3946 19.5196 20.5 19.2652 20.5 19V12C20.5 11.4477 20.9477 11 21.5 11C22.0523 11 22.5 11.4477 22.5 12V19C22.5 19.7957 22.1839 20.5587 21.6213 21.1213C21.0587 21.6839 20.2956 22 19.5 22H5.49998C4.70433 22 3.94127 21.6839 3.37866 21.1213C2.81606 20.5587 2.49998 19.7957 2.49998 19V5C2.49998 4.20435 2.81606 3.44129 3.37866 2.87868C3.94127 2.31607 4.70434 2 5.49998 2H16.5C17.0523 2 17.5 2.44772 17.5 3C17.5 3.55228 17.0523 4 16.5 4H5.49998Z" fill="#49CA94"/>
</g>
<defs>
<clipPath id="clip0_21_771">
<rect width="24" height="24" fill="white"/>
</clipPath>
</defs>
</svg>
