<svg width="24" height="26" viewBox="0 0 24 26" fill="none" xmlns="http://www.w3.org/2000/svg">
<path fill-rule="evenodd" clip-rule="evenodd" d="M3.87868 3.87868C4.44129 3.31607 5.20435 3 6 3H13C13.2652 3 13.5196 3.10536 13.7071 3.29289L20.7071 10.2929C20.8946 10.4804 21 10.7348 21 11V22C21 22.7957 20.6839 23.5587 20.1213 24.1213C19.5587 24.6839 18.7957 25 18 25H6C5.20435 25 4.44129 24.6839 3.87868 24.1213C3.31607 23.5587 3 22.7957 3 22V6C3 5.20435 3.31607 4.44129 3.87868 3.87868ZM6 5C5.73478 5 5.48043 5.10536 5.29289 5.29289C5.10536 5.48043 5 5.73478 5 6V22C5 22.2652 5.10536 22.5196 5.29289 22.7071C5.48043 22.8946 5.73478 23 6 23H18C18.2652 23 18.5196 22.8946 18.7071 22.7071C18.8946 22.5196 19 22.2652 19 22V11.4142L12.5858 5H6Z" fill="black"/>
<path fill-rule="evenodd" clip-rule="evenodd" d="M13 3C13.5523 3 14 3.44772 14 4V10H20C20.5523 10 21 10.4477 21 11C21 11.5523 20.5523 12 20 12H13C12.4477 12 12 11.5523 12 11V4C12 3.44772 12.4477 3 13 3Z" fill="black"/>
<path d="M6.87868 0.87868C7.44129 0.31607 8.20435 0 9 0H16C16.2652 0 16.5196 0.105357 16.7071 0.292893L23.7071 7.29289C23.8946 7.48043 24 7.73478 24 8V19C24 19 24 19.5 23.5 20C23 20.5 22 21 22 21L22 19V8.41421L15.5858 2H9H6.17157C6.31933 1.5821 6.55927 1.19808 6.87868 0.87868Z" fill="black"/>
</svg>
